<svg xmlns="http://www.w3.org/2000/svg" viewBox="0 0 64 64" shape-rendering="crispEdges">
  <rect width="64" height="64" fill="#0f1120"/>
  <g transform="translate(0 0) scale(1)">
    <rect x="0" y="0" width="32" height="32" fill="#20243c"/>
    <rect x="0" y="0" width="32" height="2" fill="#343957"/>
    <rect x="0" y="0" width="2" height="32" fill="#343957"/>
    <rect x="6.666666666666667" y="4" width="2" height="2" fill="#ef5f6d"/>
    <rect x="8.666666666666668" y="4" width="2" height="2" fill="#ef5f6d"/>
    <rect x="10.666666666666668" y="4" width="2" height="2" fill="#ef5f6d"/>
    <rect x="10.666666666666668" y="6" width="2" height="2" fill="#ef5f6d"/>
    <rect x="6.666666666666667" y="8" width="2" height="2" fill="#ef5f6d"/>
    <rect x="8.666666666666668" y="8" width="2" height="2" fill="#ef5f6d"/>
    <rect x="10.666666666666668" y="8" width="2" height="2" fill="#ef5f6d"/>
    <rect x="6.666666666666667" y="10" width="2" height="2" fill="#ef5f6d"/>
    <rect x="6.666666666666667" y="12" width="2" height="2" fill="#ef5f6d"/>
    <rect x="8.666666666666668" y="12" width="2" height="2" fill="#ef5f6d"/>
    <rect x="10.666666666666668" y="12" width="2" height="2" fill="#ef5f6d"/>
    <rect x="21.333333333333336" y="4" width="2" height="2" fill="#4d88ff"/>
    <rect x="19.333333333333336" y="6" width="2" height="2" fill="#4d88ff"/>
    <rect x="21.333333333333336" y="6" width="2" height="2" fill="#4d88ff"/>
    <rect x="21.333333333333336" y="8" width="2" height="2" fill="#4d88ff"/>
    <rect x="21.333333333333336" y="10" width="2" height="2" fill="#4d88ff"/>
    <rect x="19.333333333333336" y="12" width="2" height="2" fill="#4d88ff"/>
    <rect x="21.333333333333336" y="12" width="2" height="2" fill="#4d88ff"/>
    <rect x="23.333333333333336" y="12" width="2" height="2" fill="#4d88ff"/>
    <rect x="8.666666666666668" y="18" width="2" height="2" fill="#57e0a2"/>
    <rect x="6.666666666666667" y="20" width="2" height="2" fill="#57e0a2"/>
    <rect x="8.666666666666668" y="20" width="2" height="2" fill="#57e0a2"/>
    <rect x="8.666666666666668" y="22" width="2" height="2" fill="#57e0a2"/>
    <rect x="8.666666666666668" y="24" width="2" height="2" fill="#57e0a2"/>
    <rect x="6.666666666666667" y="26" width="2" height="2" fill="#57e0a2"/>
    <rect x="8.666666666666668" y="26" width="2" height="2" fill="#57e0a2"/>
    <rect x="10.666666666666668" y="26" width="2" height="2" fill="#57e0a2"/>
    <rect x="19.333333333333336" y="18" width="2" height="2" fill="#e9b53a"/>
    <rect x="21.333333333333336" y="18" width="2" height="2" fill="#e9b53a"/>
    <rect x="23.333333333333336" y="18" width="2" height="2" fill="#e9b53a"/>
    <rect x="23.333333333333336" y="20" width="2" height="2" fill="#e9b53a"/>
    <rect x="19.333333333333336" y="22" width="2" height="2" fill="#e9b53a"/>
    <rect x="21.333333333333336" y="22" width="2" height="2" fill="#e9b53a"/>
    <rect x="23.333333333333336" y="22" width="2" height="2" fill="#e9b53a"/>
    <rect x="23.333333333333336" y="24" width="2" height="2" fill="#e9b53a"/>
    <rect x="19.333333333333336" y="26" width="2" height="2" fill="#e9b53a"/>
    <rect x="21.333333333333336" y="26" width="2" height="2" fill="#e9b53a"/>
    <rect x="23.333333333333336" y="26" width="2" height="2" fill="#e9b53a"/>
    <rect x="32" y="0" width="32" height="32" fill="#353a59"/>
    <rect x="32" y="0" width="32" height="2" fill="#5b6288"/>
    <rect x="32" y="0" width="2" height="32" fill="#5b6288"/>
    <rect x="32" y="30" width="32" height="2" fill="#1b1f36"/>
    <rect x="62" y="0" width="2" height="32" fill="#1b1f36"/>
    <rect x="0" y="32" width="32" height="32" fill="#353a59"/>
    <rect x="0" y="32" width="32" height="2" fill="#5b6288"/>
    <rect x="0" y="32" width="2" height="32" fill="#5b6288"/>
    <rect x="0" y="62" width="32" height="2" fill="#1b1f36"/>
    <rect x="30" y="32" width="2" height="32" fill="#1b1f36"/>
    <rect x="8" y="37" width="2" height="2" fill="#c3c3c3"/>
    <rect x="10" y="37" width="2" height="2" fill="#c3c3c3"/>
    <rect x="12" y="37" width="2" height="2" fill="#ef5f6d"/>
    <rect x="14" y="37" width="2" height="2" fill="#ef5f6d"/>
    <rect x="16" y="37" width="2" height="2" fill="#ef5f6d"/>
    <rect x="18" y="37" width="2" height="2" fill="#ef5f6d"/>
    <rect x="8" y="39" width="2" height="2" fill="#c3c3c3"/>
    <rect x="10" y="39" width="2" height="2" fill="#c3c3c3"/>
    <rect x="12" y="39" width="2" height="2" fill="#ef5f6d"/>
    <rect x="14" y="39" width="2" height="2" fill="#ef5f6d"/>
    <rect x="16" y="39" width="2" height="2" fill="#ef5f6d"/>
    <rect x="18" y="39" width="2" height="2" fill="#ef5f6d"/>
    <rect x="20" y="39" width="2" height="2" fill="#ef5f6d"/>
    <rect x="8" y="41" width="2" height="2" fill="#c3c3c3"/>
    <rect x="10" y="41" width="2" height="2" fill="#c3c3c3"/>
    <rect x="12" y="41" width="2" height="2" fill="#ef5f6d"/>
    <rect x="14" y="41" width="2" height="2" fill="#ef5f6d"/>
    <rect x="16" y="41" width="2" height="2" fill="#ef5f6d"/>
    <rect x="18" y="41" width="2" height="2" fill="#ef5f6d"/>
    <rect x="20" y="41" width="2" height="2" fill="#ef5f6d"/>
    <rect x="22" y="41" width="2" height="2" fill="#ef5f6d"/>
    <rect x="8" y="43" width="2" height="2" fill="#c3c3c3"/>
    <rect x="10" y="43" width="2" height="2" fill="#c3c3c3"/>
    <rect x="12" y="43" width="2" height="2" fill="#ef5f6d"/>
    <rect x="14" y="43" width="2" height="2" fill="#ef5f6d"/>
    <rect x="16" y="43" width="2" height="2" fill="#ef5f6d"/>
    <rect x="18" y="43" width="2" height="2" fill="#ef5f6d"/>
    <rect x="20" y="43" width="2" height="2" fill="#ef5f6d"/>
    <rect x="8" y="45" width="2" height="2" fill="#c3c3c3"/>
    <rect x="10" y="45" width="2" height="2" fill="#c3c3c3"/>
    <rect x="12" y="45" width="2" height="2" fill="#ef5f6d"/>
    <rect x="14" y="45" width="2" height="2" fill="#ef5f6d"/>
    <rect x="16" y="45" width="2" height="2" fill="#ef5f6d"/>
    <rect x="18" y="45" width="2" height="2" fill="#ef5f6d"/>
    <rect x="8" y="47" width="2" height="2" fill="#c3c3c3"/>
    <rect x="10" y="47" width="2" height="2" fill="#c3c3c3"/>
    <rect x="12" y="47" width="2" height="2" fill="#ef5f6d"/>
    <rect x="14" y="47" width="2" height="2" fill="#ef5f6d"/>
    <rect x="16" y="47" width="2" height="2" fill="#ef5f6d"/>
    <rect x="8" y="49" width="2" height="2" fill="#c3c3c3"/>
    <rect x="10" y="49" width="2" height="2" fill="#c3c3c3"/>
    <rect x="8" y="51" width="2" height="2" fill="#c3c3c3"/>
    <rect x="10" y="51" width="2" height="2" fill="#c3c3c3"/>
    <rect x="8" y="53" width="2" height="2" fill="#c3c3c3"/>
    <rect x="10" y="53" width="2" height="2" fill="#c3c3c3"/>
    <rect x="8" y="55" width="2" height="2" fill="#c3c3c3"/>
    <rect x="10" y="55" width="2" height="2" fill="#c3c3c3"/>
    <rect x="8" y="57" width="2" height="2" fill="#c3c3c3"/>
    <rect x="10" y="57" width="2" height="2" fill="#c3c3c3"/>
    <rect x="32" y="32" width="32" height="32" fill="#20243c"/>
    <rect x="32" y="32" width="32" height="2" fill="#343957"/>
    <rect x="32" y="32" width="2" height="32" fill="#343957"/>
    <rect x="53.33333333333333" y="36" width="2" height="2" fill="#4d88ff"/>
    <rect x="51.33333333333333" y="38" width="2" height="2" fill="#4d88ff"/>
    <rect x="53.33333333333333" y="38" width="2" height="2" fill="#4d88ff"/>
    <rect x="53.33333333333333" y="40" width="2" height="2" fill="#4d88ff"/>
    <rect x="53.33333333333333" y="42" width="2" height="2" fill="#4d88ff"/>
    <rect x="51.33333333333333" y="44" width="2" height="2" fill="#4d88ff"/>
    <rect x="53.33333333333333" y="44" width="2" height="2" fill="#4d88ff"/>
    <rect x="55.33333333333333" y="44" width="2" height="2" fill="#4d88ff"/>
    <rect x="38.666666666666664" y="50" width="2" height="2" fill="#57e0a2"/>
    <rect x="40.666666666666664" y="50" width="2" height="2" fill="#57e0a2"/>
    <rect x="42.666666666666664" y="50" width="2" height="2" fill="#57e0a2"/>
    <rect x="42.666666666666664" y="52" width="2" height="2" fill="#57e0a2"/>
    <rect x="38.666666666666664" y="54" width="2" height="2" fill="#57e0a2"/>
    <rect x="40.666666666666664" y="54" width="2" height="2" fill="#57e0a2"/>
    <rect x="42.666666666666664" y="54" width="2" height="2" fill="#57e0a2"/>
    <rect x="38.666666666666664" y="56" width="2" height="2" fill="#57e0a2"/>
    <rect x="38.666666666666664" y="58" width="2" height="2" fill="#57e0a2"/>
    <rect x="40.666666666666664" y="58" width="2" height="2" fill="#57e0a2"/>
    <rect x="42.666666666666664" y="58" width="2" height="2" fill="#57e0a2"/>
  </g>
</svg>
